<svg id="svg" version="1.1" xmlns="http://www.w3.org/2000/svg" xmlns:xlink="http://www.w3.org/1999/xlink" width="400" height="456.0834298957126" viewBox="0, 0, 400,456.0834298957126"><g id="svgg"><path id="path0" d="M142.830 218.371 C 142.375 218.660,142.536 218.963,143.625 219.867 C 145.243 221.210,147.678 223.370,149.293 224.896 C 149.932 225.499,150.806 226.239,151.236 226.540 C 151.665 226.841,152.691 227.698,153.516 228.444 C 154.340 229.190,155.821 230.493,156.807 231.340 C 159.613 233.750,162.011 235.878,164.400 238.077 C 165.610 239.190,167.770 241.109,169.200 242.340 C 170.630 243.571,172.970 245.678,174.400 247.022 C 175.830 248.367,178.620 250.977,180.600 252.823 C 185.854 257.721,195.256 267.314,200.768 273.400 C 204.364 277.371,205.779 279.064,208.681 282.867 C 212.984 288.506,214.666 290.670,215.117 291.145 C 215.401 291.445,216.251 292.615,217.006 293.745 C 217.761 294.875,219.284 297.129,220.389 298.754 C 221.495 300.378,222.400 301.760,222.400 301.825 C 222.400 301.890,223.092 302.991,223.938 304.272 C 225.600 306.787,231.200 317.048,231.200 317.579 C 231.200 318.238,232.517 319.040,232.701 318.493 C 232.795 318.214,233.092 317.764,233.362 317.493 C 233.632 317.222,234.374 316.100,235.013 315.000 C 235.651 313.900,236.408 312.758,236.696 312.462 C 236.983 312.166,237.481 311.418,237.801 310.799 C 239.675 307.174,250.059 294.635,256.014 288.806 C 259.443 285.449,264.582 281.137,269.400 277.572 C 271.160 276.270,272.860 274.983,273.179 274.713 C 274.365 273.705,280.799 269.600,281.192 269.600 C 281.416 269.600,281.600 269.443,281.600 269.252 C 281.600 269.060,282.635 268.368,283.900 267.714 C 293.368 262.815,295.790 261.600,296.083 261.600 C 296.266 261.600,297.538 261.070,298.908 260.422 C 302.774 258.594,306.242 257.264,310.600 255.940 C 312.800 255.271,315.140 254.490,315.800 254.203 C 316.460 253.917,318.800 253.292,321.000 252.814 C 323.200 252.336,325.450 251.837,326.000 251.705 C 326.550 251.573,327.270 251.448,327.600 251.426 C 327.930 251.405,328.402 251.259,328.649 251.102 C 329.444 250.595,347.093 248.852,352.400 248.756 C 355.155 248.707,366.990 249.405,371.100 249.860 C 374.478 250.234,373.970 249.349,368.800 245.855 C 364.717 243.094,361.951 241.443,360.000 240.600 C 359.010 240.172,358.068 239.637,357.906 239.411 C 357.744 239.185,357.609 239.140,357.606 239.310 C 357.603 239.481,357.089 239.356,356.463 239.033 C 353.114 237.301,343.025 234.650,335.000 233.393 C 334.340 233.290,333.398 233.125,332.907 233.027 C 325.765 231.602,303.420 231.477,271.000 232.683 C 257.883 233.170,223.118 233.040,215.400 232.474 C 211.660 232.200,207.250 231.874,205.600 231.750 C 201.445 231.438,195.499 230.629,186.800 229.192 C 177.961 227.731,178.350 227.802,177.600 227.509 C 177.270 227.380,175.020 226.888,172.600 226.417 C 170.180 225.946,167.390 225.305,166.400 224.993 C 165.410 224.680,162.440 223.873,159.800 223.199 C 157.160 222.524,154.370 221.720,153.600 221.412 C 152.830 221.104,150.490 220.315,148.400 219.659 C 146.310 219.004,144.330 218.364,144.000 218.238 C 143.670 218.112,143.143 218.172,142.830 218.371 M384.800 239.725 C 384.800 239.794,385.385 240.379,386.100 241.025 L 387.400 242.200 386.225 240.900 C 385.130 239.688,384.800 239.416,384.800 239.725 " stroke="none" fill="#f48424" fill-rule="evenodd"></path><path id="path1" d="M349.089 264.296 C 347.818 264.375,346.855 264.566,346.949 264.720 C 347.043 264.874,346.283 265.001,345.260 265.003 C 341.107 265.011,323.577 270.998,318.800 274.041 C 318.470 274.251,317.075 274.960,315.700 275.616 C 314.325 276.272,312.834 277.121,312.387 277.504 C 311.940 277.887,311.445 278.213,311.287 278.229 C 310.612 278.296,308.800 279.359,308.800 279.688 C 308.800 279.885,308.644 279.951,308.453 279.833 C 308.263 279.715,307.785 279.975,307.391 280.409 C 306.998 280.844,306.460 281.200,306.196 281.200 C 305.933 281.200,305.231 281.650,304.638 282.200 C 304.044 282.750,303.388 283.200,303.179 283.200 C 302.971 283.200,302.800 283.391,302.800 283.624 C 302.800 283.857,302.626 283.940,302.413 283.808 C 302.200 283.677,301.808 283.918,301.542 284.345 C 301.275 284.771,300.853 285.042,300.603 284.946 C 300.353 284.850,299.655 285.228,299.053 285.786 C 298.451 286.344,297.833 286.801,297.679 286.802 C 297.526 286.803,296.453 287.522,295.295 288.399 C 294.137 289.277,292.469 290.473,291.587 291.056 C 290.705 291.640,290.072 292.206,290.181 292.314 C 290.289 292.423,289.675 292.859,288.817 293.284 C 287.958 293.709,286.969 294.494,286.618 295.028 C 286.268 295.563,285.732 296.000,285.426 296.000 C 285.121 296.000,284.417 296.540,283.861 297.200 C 283.306 297.860,282.705 298.404,282.526 298.409 C 282.347 298.414,281.480 299.054,280.600 299.832 C 278.164 301.984,271.655 308.000,269.816 309.800 C 268.917 310.680,267.231 312.256,266.069 313.303 C 264.907 314.349,264.067 315.384,264.202 315.603 C 264.337 315.821,264.271 316.000,264.056 316.000 C 263.708 316.000,259.641 319.947,258.600 321.293 C 258.380 321.578,256.876 323.294,255.258 325.105 C 253.639 326.917,252.464 328.400,252.647 328.400 C 252.829 328.400,252.578 328.680,252.089 329.023 C 251.600 329.365,251.200 329.862,251.200 330.126 C 251.200 330.391,250.825 330.842,250.367 331.128 C 249.894 331.423,249.629 331.898,249.754 332.224 C 249.884 332.562,249.735 332.800,249.395 332.800 C 249.076 332.800,248.700 333.258,248.560 333.819 C 248.419 334.379,248.203 334.737,248.080 334.613 C 247.893 334.426,244.277 340.190,244.199 340.800 C 244.185 340.910,243.839 341.856,243.432 342.902 C 242.762 344.618,242.719 345.497,242.993 351.902 C 243.159 355.806,243.287 359.675,243.275 360.500 C 243.264 361.325,243.378 362.000,243.528 362.000 C 243.857 362.000,243.769 376.202,243.436 376.741 C 243.307 376.950,243.216 378.083,243.233 379.260 C 243.265 381.492,242.968 384.549,242.520 386.600 C 242.376 387.260,242.231 388.160,242.198 388.600 C 242.164 389.040,241.996 389.718,241.823 390.106 C 241.651 390.494,241.603 391.169,241.717 391.606 C 241.832 392.042,241.773 392.493,241.588 392.607 C 241.403 392.722,241.251 393.127,241.252 393.508 C 241.253 394.466,239.683 400.865,239.267 401.600 C 239.080 401.930,238.423 403.820,237.806 405.800 C 237.189 407.780,236.530 409.571,236.342 409.780 C 235.265 410.977,236.480 412.809,238.223 412.617 C 239.368 412.492,239.832 412.043,243.000 408.004 C 243.880 406.882,244.998 405.485,245.484 404.899 C 245.970 404.314,246.288 403.755,246.191 403.658 C 246.094 403.561,246.338 403.193,246.733 402.841 C 247.752 401.931,250.800 397.804,250.800 397.333 C 250.800 397.117,251.244 396.522,251.788 396.012 C 252.331 395.501,252.681 394.931,252.565 394.744 C 252.450 394.557,252.774 393.998,253.286 393.502 C 254.463 392.361,256.654 388.998,255.936 389.433 C 255.641 389.611,255.986 389.167,256.703 388.445 C 257.419 387.723,257.904 386.968,257.779 386.766 C 257.655 386.565,257.711 386.400,257.905 386.400 C 258.298 386.400,260.400 383.336,260.400 382.764 C 260.400 382.564,260.591 382.400,260.824 382.400 C 261.057 382.400,261.135 382.219,260.998 381.997 C 260.861 381.776,261.031 381.486,261.375 381.354 C 261.719 381.222,262.000 380.873,262.000 380.577 C 262.000 380.282,262.315 379.856,262.700 379.632 C 263.085 379.408,263.267 379.219,263.104 379.212 C 262.941 379.205,263.121 378.834,263.504 378.387 C 263.887 377.940,264.140 377.465,264.066 377.332 C 263.992 377.198,264.094 376.979,264.292 376.845 C 264.859 376.460,267.200 372.904,267.200 372.428 C 267.200 372.193,267.410 372.000,267.667 372.000 C 267.923 372.000,268.025 371.892,267.893 371.760 C 267.761 371.628,268.603 370.233,269.763 368.660 C 272.295 365.229,272.865 364.208,272.486 363.788 C 272.329 363.614,272.412 363.593,272.671 363.742 C 273.107 363.991,273.867 362.616,273.683 361.912 C 273.642 361.754,273.971 361.429,274.415 361.192 C 274.859 360.954,275.128 360.608,275.014 360.422 C 274.899 360.236,275.074 359.981,275.402 359.854 C 275.731 359.728,276.000 359.439,276.000 359.213 C 276.000 358.986,276.292 358.485,276.649 358.100 C 277.006 357.715,278.258 355.870,279.433 354.000 C 280.608 352.130,281.756 350.382,281.986 350.115 C 282.216 349.848,282.612 349.173,282.866 348.615 C 283.120 348.057,283.490 347.600,283.688 347.600 C 283.885 347.600,283.936 347.420,283.800 347.200 C 283.664 346.980,283.753 346.800,283.997 346.800 C 284.241 346.800,284.712 346.215,285.044 345.500 C 286.066 343.299,286.661 342.394,286.916 342.650 C 287.051 342.784,287.279 342.423,287.424 341.847 C 287.568 341.271,287.837 340.800,288.022 340.800 C 288.206 340.800,288.591 340.375,288.878 339.856 C 289.850 338.096,291.718 335.401,292.056 335.268 C 292.241 335.195,292.704 334.475,293.083 333.668 C 293.463 332.861,294.095 331.851,294.487 331.425 C 295.171 330.681,295.361 330.184,295.237 329.470 C 295.206 329.289,295.344 329.242,295.545 329.366 C 295.745 329.490,296.132 329.323,296.404 328.996 C 296.676 328.668,296.773 328.400,296.620 328.400 C 296.468 328.400,296.626 328.117,296.971 327.771 C 297.317 327.426,297.600 326.886,297.600 326.571 C 297.600 326.257,297.770 326.045,297.977 326.100 C 298.184 326.155,298.859 325.456,299.477 324.546 C 303.205 319.055,303.846 318.169,304.299 317.880 C 304.574 317.704,305.073 317.033,305.406 316.389 C 305.739 315.745,306.774 314.198,307.706 312.952 C 308.638 311.706,309.362 310.629,309.315 310.559 C 309.269 310.488,309.719 309.928,310.315 309.313 C 311.371 308.224,311.834 307.631,314.379 304.100 C 315.054 303.165,315.799 302.400,316.036 302.400 C 316.273 302.400,316.402 302.206,316.323 301.969 C 316.244 301.732,316.854 300.808,317.679 299.914 C 318.504 299.021,319.083 298.134,318.966 297.945 C 318.849 297.755,319.039 297.600,319.389 297.600 C 319.739 297.600,320.143 297.285,320.286 296.900 C 320.430 296.515,320.867 295.970,321.257 295.689 C 321.647 295.408,321.865 294.913,321.740 294.589 C 321.602 294.228,321.752 294.000,322.130 294.000 C 322.469 294.000,323.159 293.415,323.664 292.700 C 324.169 291.985,324.946 291.091,325.391 290.713 C 325.836 290.336,326.083 290.021,325.940 290.013 C 325.797 290.006,327.000 288.650,328.613 286.999 C 330.227 285.349,331.652 283.666,331.781 283.260 C 331.910 282.854,332.462 282.318,333.008 282.069 C 333.553 281.821,334.000 281.343,334.000 281.009 C 334.000 280.674,334.142 280.400,334.315 280.400 C 334.489 280.400,336.366 278.690,338.486 276.600 C 340.607 274.510,342.565 272.800,342.838 272.800 C 343.110 272.800,343.228 272.695,343.100 272.567 C 342.812 272.279,343.969 271.094,345.473 270.136 C 346.093 269.742,346.744 269.190,346.920 268.910 C 347.096 268.629,347.419 268.400,347.637 268.400 C 348.214 268.400,352.400 265.173,352.400 264.728 C 352.400 264.522,352.608 264.481,352.862 264.638 C 353.148 264.815,353.215 264.748,353.038 264.462 C 352.881 264.208,352.448 264.034,352.076 264.076 C 351.704 264.117,350.360 264.216,349.089 264.296 " stroke="none" fill="#f35c44" fill-rule="evenodd"></path><path id="path2" d="M0.638 4.100 C 0.914 6.355,1.344 9.370,1.593 10.800 C 1.842 12.230,2.152 14.120,2.283 15.000 C 2.413 15.880,2.642 16.690,2.791 16.800 C 2.940 16.910,3.579 19.430,4.212 22.400 C 4.844 25.370,5.478 27.890,5.620 28.000 C 5.763 28.110,5.900 28.470,5.925 28.800 C 6.011 29.903,7.868 36.558,9.141 40.323 C 9.833 42.370,10.400 44.224,10.400 44.442 C 10.400 44.660,10.729 45.521,11.132 46.354 C 11.535 47.188,12.372 49.474,12.993 51.435 C 13.613 53.396,14.236 55.090,14.377 55.200 C 14.518 55.310,14.887 56.210,15.197 57.200 C 15.507 58.190,16.026 59.630,16.351 60.400 C 16.675 61.170,17.000 62.129,17.073 62.531 C 17.145 62.933,17.473 63.531,17.802 63.859 C 18.131 64.188,18.400 64.710,18.400 65.020 C 18.400 65.329,19.002 66.891,19.737 68.491 C 20.472 70.091,21.496 72.480,22.012 73.800 C 22.528 75.120,23.059 76.290,23.192 76.400 C 23.325 76.510,24.049 78.040,24.800 79.800 C 25.551 81.560,26.269 83.090,26.394 83.200 C 26.791 83.548,31.600 93.478,31.600 93.949 C 31.600 94.197,31.767 94.400,31.971 94.400 C 32.175 94.400,32.810 95.390,33.383 96.600 C 33.955 97.810,34.628 98.800,34.878 98.800 C 35.129 98.800,35.224 98.910,35.089 99.044 C 34.955 99.178,35.259 99.943,35.764 100.744 C 36.270 101.545,36.804 102.581,36.952 103.047 C 37.100 103.513,37.576 104.216,38.010 104.609 C 38.445 105.002,38.800 105.486,38.800 105.684 C 38.800 105.882,39.494 107.069,40.342 108.322 C 41.190 109.575,42.200 111.213,42.585 111.962 C 42.970 112.712,43.457 113.522,43.666 113.762 C 43.876 114.003,44.622 115.123,45.324 116.250 C 47.727 120.112,48.917 121.800,49.458 122.120 C 49.756 122.296,50.000 122.618,50.000 122.836 C 50.000 123.285,51.650 125.732,52.085 125.928 C 52.242 125.999,52.776 126.719,53.272 127.528 C 54.394 129.358,54.768 129.838,55.900 130.900 C 56.395 131.364,56.800 131.978,56.800 132.263 C 56.800 132.548,57.250 133.076,57.800 133.437 C 58.350 133.797,58.800 134.310,58.800 134.576 C 58.800 134.843,59.250 135.483,59.800 136.000 C 60.350 136.517,60.800 137.059,60.800 137.206 C 60.800 137.782,77.575 154.792,81.000 157.690 C 82.540 158.992,84.160 160.373,84.600 160.757 C 85.040 161.142,86.030 161.894,86.799 162.428 C 87.569 162.963,88.490 163.715,88.846 164.100 C 89.202 164.485,89.613 164.800,89.758 164.800 C 89.903 164.800,91.412 165.857,93.111 167.148 C 94.810 168.440,97.280 170.179,98.600 171.014 C 99.920 171.848,101.090 172.657,101.200 172.810 C 101.310 172.963,102.030 173.410,102.800 173.803 C 103.570 174.197,104.740 174.926,105.400 175.423 C 106.060 175.921,107.410 176.771,108.400 177.313 C 109.390 177.855,111.640 179.106,113.400 180.093 C 115.160 181.079,117.410 182.317,118.400 182.843 C 119.390 183.370,120.310 183.950,120.445 184.134 C 120.579 184.318,120.849 184.483,121.045 184.502 C 121.709 184.565,126.599 186.949,126.733 187.275 C 126.807 187.454,127.124 187.600,127.439 187.600 C 127.753 187.600,128.323 187.774,128.705 187.986 C 130.171 188.801,135.472 191.107,137.000 191.595 C 137.880 191.876,138.960 192.298,139.400 192.533 C 139.840 192.769,140.380 193.011,140.600 193.072 C 140.820 193.132,142.755 193.789,144.900 194.532 C 147.045 195.275,148.800 195.797,148.800 195.692 C 148.800 195.588,149.039 195.700,149.331 195.943 C 150.032 196.524,156.988 198.621,157.700 198.466 C 157.865 198.430,158.000 198.558,158.000 198.751 C 158.000 199.055,161.875 200.097,166.400 201.011 C 167.170 201.167,167.980 201.403,168.200 201.536 C 168.420 201.669,168.780 201.819,169.000 201.869 C 169.220 201.920,170.480 202.223,171.800 202.543 C 173.120 202.863,176.135 203.438,178.500 203.821 C 180.865 204.204,182.800 204.671,182.800 204.859 C 182.800 205.046,183.295 205.201,183.900 205.202 C 184.505 205.204,186.800 205.481,189.000 205.819 C 191.200 206.157,195.340 206.693,198.200 207.011 C 201.060 207.328,205.560 207.843,208.200 208.155 C 217.706 209.278,229.508 209.705,259.600 210.013 C 276.430 210.186,292.540 210.416,295.400 210.524 C 308.660 211.027,327.170 212.551,328.484 213.248 C 328.860 213.448,329.310 213.578,329.484 213.538 C 329.829 213.459,330.578 213.594,338.000 215.084 C 340.750 215.636,343.339 216.267,343.753 216.486 C 344.168 216.706,346.148 217.333,348.153 217.881 C 350.159 218.429,351.980 219.021,352.200 219.195 C 352.420 219.370,353.410 219.797,354.400 220.143 C 358.327 221.519,359.128 221.842,359.654 222.259 C 359.954 222.498,361.370 223.199,362.800 223.818 C 364.230 224.436,365.670 225.137,366.000 225.376 C 366.330 225.614,367.230 226.154,368.000 226.577 C 368.770 226.999,370.337 228.032,371.483 228.872 C 372.629 229.712,373.745 230.400,373.963 230.400 C 374.182 230.400,374.504 230.634,374.680 230.920 C 374.856 231.206,375.630 231.870,376.400 232.396 C 377.170 232.922,378.250 233.766,378.800 234.271 C 379.350 234.776,380.876 236.137,382.192 237.295 C 386.402 241.000,390.942 245.906,392.440 248.369 C 392.851 249.046,393.401 249.600,393.661 249.600 C 393.921 249.600,394.028 249.705,393.900 249.833 C 393.772 249.962,393.967 250.399,394.333 250.805 C 395.370 251.952,395.899 252.722,397.696 255.697 C 398.829 257.573,399.076 257.574,399.345 255.700 C 400.415 248.264,399.347 234.426,397.377 230.200 C 397.070 229.540,396.471 227.920,396.048 226.600 C 395.250 224.113,392.291 217.852,391.417 216.800 C 391.143 216.470,390.487 215.403,389.959 214.428 C 389.432 213.454,388.505 212.109,387.900 211.439 C 387.295 210.770,386.800 210.035,386.800 209.806 C 386.800 209.577,386.350 209.052,385.800 208.639 C 385.250 208.226,384.800 207.688,384.799 207.444 C 384.797 206.585,375.111 197.023,371.400 194.216 C 370.300 193.384,369.310 192.590,369.200 192.452 C 369.090 192.313,368.705 192.020,368.344 191.800 C 367.984 191.580,365.490 189.914,362.803 188.097 C 360.116 186.281,357.486 184.686,356.959 184.554 C 356.431 184.422,356.000 184.184,356.000 184.026 C 356.000 183.685,345.541 178.400,344.866 178.400 C 344.610 178.400,344.400 178.220,344.400 178.000 C 344.400 177.780,344.051 177.600,343.624 177.600 C 343.197 177.600,342.748 177.440,342.627 177.244 C 342.506 177.049,341.924 176.767,341.333 176.619 C 340.741 176.470,339.152 175.832,337.800 175.200 C 336.448 174.568,334.815 173.920,334.171 173.760 C 333.527 173.600,332.370 173.194,331.600 172.859 C 330.830 172.523,330.110 172.229,330.000 172.204 C 329.890 172.180,326.920 171.246,323.400 170.130 C 315.157 167.514,312.684 166.800,311.865 166.800 C 311.499 166.800,311.200 166.590,311.200 166.333 C 311.200 166.077,311.102 165.965,310.982 166.085 C 310.862 166.205,309.415 165.875,307.766 165.352 C 306.118 164.828,304.461 164.399,304.085 164.398 C 303.708 164.396,302.929 164.149,302.353 163.849 C 301.777 163.548,299.437 162.810,297.153 162.208 C 294.869 161.607,292.550 160.884,292.000 160.604 C 291.450 160.323,289.380 159.691,287.400 159.199 C 285.420 158.707,283.690 158.130,283.555 157.918 C 283.421 157.705,283.151 157.524,282.955 157.515 C 282.760 157.506,282.420 157.444,282.200 157.377 C 281.980 157.311,280.090 156.771,278.000 156.178 C 275.910 155.585,274.020 154.992,273.800 154.860 C 273.220 154.511,263.968 151.353,260.061 150.169 C 258.224 149.613,256.424 148.988,256.061 148.780 C 255.145 148.256,249.235 146.400,248.482 146.400 C 248.144 146.400,247.988 146.278,248.137 146.130 C 248.285 145.981,246.380 145.160,243.903 144.304 C 241.427 143.449,238.050 142.282,236.400 141.711 C 234.750 141.140,233.268 140.476,233.106 140.236 C 232.944 139.996,232.809 139.945,232.806 140.123 C 232.803 140.300,232.305 140.176,231.700 139.846 C 231.095 139.517,229.340 138.850,227.800 138.364 C 226.260 137.879,224.910 137.363,224.800 137.218 C 224.690 137.074,223.430 136.540,222.000 136.032 C 218.991 134.963,213.221 132.620,211.231 131.660 C 210.478 131.297,209.758 130.985,209.631 130.966 C 209.504 130.948,208.950 130.745,208.400 130.515 C 207.850 130.286,206.503 129.794,205.407 129.422 C 204.311 129.050,203.321 128.605,203.207 128.433 C 203.093 128.260,201.782 127.716,200.294 127.225 C 198.806 126.733,197.322 126.065,196.997 125.740 C 196.672 125.415,196.237 125.253,196.031 125.381 C 195.824 125.509,195.550 125.443,195.422 125.236 C 195.294 125.028,194.516 124.637,193.694 124.366 C 192.872 124.095,191.570 123.611,190.800 123.290 C 190.030 122.969,189.330 122.742,189.245 122.787 C 189.159 122.832,188.979 122.718,188.845 122.534 C 188.492 122.053,184.887 120.400,184.189 120.400 C 183.865 120.400,183.600 120.264,183.600 120.098 C 183.600 119.773,182.239 119.118,179.023 117.896 C 177.912 117.474,176.912 117.004,176.801 116.852 C 176.691 116.700,175.269 116.047,173.641 115.401 C 172.014 114.754,170.452 113.995,170.170 113.713 C 169.888 113.431,169.513 113.200,169.336 113.200 C 168.658 113.200,164.800 111.436,164.800 111.126 C 164.800 110.947,164.613 110.800,164.385 110.800 C 164.157 110.800,161.682 109.701,158.885 108.358 C 156.088 107.015,152.270 105.186,150.400 104.293 C 148.530 103.400,146.890 102.503,146.755 102.301 C 146.621 102.098,146.441 101.987,146.355 102.055 C 146.270 102.122,144.271 101.148,141.914 99.889 C 139.557 98.630,137.476 97.600,137.289 97.600 C 137.103 97.600,136.602 97.285,136.175 96.900 C 135.749 96.515,134.410 95.760,133.200 95.221 C 131.990 94.683,130.791 93.996,130.536 93.695 C 130.281 93.393,129.967 93.158,129.838 93.171 C 129.492 93.206,125.378 91.137,122.462 89.460 C 121.065 88.657,119.760 88.000,119.562 88.000 C 119.363 88.000,119.200 87.832,119.200 87.627 C 119.200 87.422,118.795 87.126,118.300 86.969 C 117.805 86.813,116.140 85.924,114.600 84.995 C 113.060 84.066,111.170 82.987,110.400 82.597 C 109.630 82.207,108.910 81.752,108.800 81.585 C 108.690 81.419,107.548 80.785,106.263 80.177 C 104.977 79.569,103.833 78.831,103.721 78.538 C 103.608 78.245,103.355 78.104,103.158 78.226 C 102.961 78.348,102.800 78.257,102.800 78.024 C 102.800 77.791,102.571 77.600,102.291 77.600 C 102.011 77.600,100.831 76.974,99.668 76.208 C 98.505 75.442,96.934 74.522,96.177 74.162 C 95.420 73.803,94.800 73.363,94.800 73.185 C 94.800 73.007,93.796 72.352,92.569 71.731 C 91.342 71.110,90.020 70.305,89.631 69.943 C 89.243 69.581,88.347 68.986,87.641 68.621 C 86.935 68.256,86.047 67.652,85.667 67.279 C 85.287 66.905,84.170 66.204,83.186 65.721 C 82.201 65.237,80.999 64.472,80.514 64.021 C 80.030 63.569,79.506 63.200,79.349 63.200 C 79.193 63.200,77.881 62.345,76.433 61.300 C 74.985 60.255,73.305 59.145,72.700 58.832 C 72.095 58.520,71.600 58.119,71.600 57.941 C 71.600 57.762,70.880 57.249,70.000 56.800 C 69.120 56.351,68.400 55.807,68.400 55.592 C 68.400 55.376,68.192 55.200,67.938 55.200 C 67.684 55.200,66.886 54.750,66.164 54.200 C 65.443 53.650,64.705 53.200,64.523 53.200 C 64.341 53.200,63.707 52.750,63.113 52.200 C 62.520 51.650,61.890 51.200,61.713 51.200 C 61.537 51.200,60.860 50.705,60.210 50.100 C 59.560 49.495,58.299 48.536,57.409 47.969 C 56.519 47.402,55.272 46.457,54.637 45.869 C 54.002 45.281,53.248 44.800,52.961 44.800 C 52.675 44.800,52.296 44.563,52.120 44.273 C 51.944 43.982,50.961 43.175,49.935 42.477 C 48.909 41.780,48.009 41.072,47.935 40.905 C 47.861 40.737,46.900 39.976,45.800 39.212 C 44.700 38.449,43.352 37.414,42.804 36.912 C 42.256 36.411,41.687 36.000,41.538 36.000 C 41.390 36.000,40.578 35.377,39.734 34.616 C 36.922 32.078,36.494 31.722,35.143 30.784 C 34.404 30.272,33.166 29.301,32.391 28.626 C 31.616 27.952,30.100 26.680,29.022 25.800 C 26.045 23.368,23.680 21.357,20.622 18.655 C 19.094 17.305,17.222 15.660,16.461 15.000 C 14.586 13.374,9.874 8.948,4.804 4.052 C -0.290 -0.868,0.028 -0.872,0.638 4.100 " stroke="none" fill="#fca41c" fill-rule="evenodd"></path><path id="path3" d="M348.505 264.287 C 349.114 264.379,350.014 264.377,350.505 264.282 C 350.997 264.187,350.500 264.111,349.400 264.114 C 348.300 264.117,347.897 264.195,348.505 264.287 M339.000 266.000 C 338.496 266.217,338.422 266.344,338.800 266.344 C 339.130 266.344,339.760 266.189,340.200 266.000 C 340.704 265.783,340.778 265.656,340.400 265.656 C 340.070 265.656,339.440 265.811,339.000 266.000 M330.800 268.600 C 330.250 268.914,329.980 269.172,330.200 269.172 C 330.420 269.172,331.050 268.914,331.600 268.600 C 332.150 268.286,332.420 268.028,332.200 268.028 C 331.980 268.028,331.350 268.286,330.800 268.600 M323.200 271.600 C 322.430 272.022,321.944 272.374,322.120 272.383 C 322.544 272.405,324.800 271.232,324.800 270.990 C 324.800 270.728,324.777 270.737,323.200 271.600 M316.700 274.827 C 315.875 275.263,315.200 275.708,315.200 275.818 C 315.200 275.927,315.920 275.649,316.800 275.200 C 317.680 274.751,318.400 274.297,318.400 274.192 C 318.400 273.930,318.397 273.931,316.700 274.827 M278.575 301.300 L 277.400 302.600 278.700 301.425 C 279.415 300.779,280.000 300.194,280.000 300.125 C 280.000 299.816,279.670 300.088,278.575 301.300 M272.800 306.600 C 271.828 307.590,271.123 308.400,271.233 308.400 C 271.343 308.400,272.228 307.590,273.200 306.600 C 274.172 305.610,274.877 304.800,274.767 304.800 C 274.657 304.800,273.772 305.610,272.800 306.600 M221.643 361.884 C 221.336 362.005,220.647 362.486,220.111 362.952 C 219.575 363.419,218.987 363.800,218.805 363.800 C 218.623 363.800,217.872 364.295,217.137 364.901 C 214.913 366.732,210.670 369.772,209.500 370.371 C 208.895 370.681,208.400 371.068,208.400 371.230 C 208.400 371.392,207.590 371.999,206.600 372.579 C 205.610 373.159,204.800 373.785,204.800 373.970 C 204.800 374.155,204.485 374.413,204.100 374.542 C 202.991 374.916,200.784 376.276,199.826 377.176 C 199.343 377.629,198.815 378.000,198.652 378.000 C 198.489 378.000,197.331 378.694,196.078 379.542 C 194.825 380.390,193.170 381.406,192.400 381.798 C 191.630 382.190,190.910 382.646,190.800 382.811 C 190.690 382.975,189.430 383.598,188.000 384.195 C 186.570 384.792,185.130 385.498,184.800 385.765 C 184.142 386.296,181.576 387.398,180.000 387.824 C 179.450 387.973,178.280 388.412,177.400 388.798 C 176.520 389.185,174.000 389.923,171.800 390.439 C 169.600 390.955,167.710 391.492,167.600 391.633 C 167.347 391.957,161.374 393.011,156.400 393.609 C 154.310 393.861,152.240 394.219,151.800 394.407 C 151.360 394.594,149.965 394.862,148.700 395.002 C 144.794 395.436,145.637 397.885,150.208 399.385 C 151.524 399.816,152.691 400.296,152.803 400.451 C 153.041 400.782,160.066 402.800,160.978 402.800 C 161.320 402.800,161.600 402.962,161.600 403.160 C 161.600 403.358,162.545 403.742,163.700 404.012 C 164.855 404.283,165.980 404.629,166.200 404.780 C 166.420 404.931,167.140 405.086,167.800 405.124 C 169.262 405.208,172.924 406.082,173.200 406.413 C 173.442 406.704,179.210 408.048,181.303 408.302 C 183.236 408.537,183.197 408.414,182.595 412.449 C 182.311 414.346,181.966 416.733,181.828 417.754 C 181.689 418.775,181.388 420.103,181.158 420.705 C 180.927 421.307,180.206 423.864,179.554 426.386 C 178.903 428.908,178.240 431.068,178.082 431.186 C 177.923 431.304,177.457 432.390,177.045 433.600 C 176.327 435.711,173.175 442.753,172.390 444.000 C 172.182 444.330,171.458 445.676,170.781 446.992 C 170.104 448.308,169.410 449.478,169.240 449.592 C 169.070 449.706,168.412 450.700,167.779 451.800 C 167.145 452.900,166.396 454.038,166.114 454.329 C 165.035 455.438,165.515 456.000,167.540 456.000 C 169.732 456.000,172.000 455.336,172.000 454.694 C 172.000 454.459,172.113 454.379,172.251 454.517 C 172.505 454.772,174.834 453.730,175.200 453.198 C 175.310 453.038,176.146 452.529,177.058 452.067 C 177.970 451.605,178.960 450.983,179.258 450.687 C 179.556 450.390,180.340 449.803,181.000 449.384 C 185.289 446.657,196.232 436.398,201.037 430.600 C 202.678 428.620,204.260 426.730,204.554 426.400 C 205.930 424.853,210.000 418.459,210.000 417.844 C 210.000 417.464,210.151 417.246,210.336 417.360 C 211.111 417.840,219.147 401.285,218.582 400.371 C 218.456 400.167,218.524 400.000,218.733 400.000 C 219.222 400.000,220.100 397.737,220.983 394.200 C 221.367 392.660,221.827 391.040,222.004 390.600 C 222.607 389.108,222.775 388.403,223.364 384.899 C 223.966 381.318,224.521 376.907,224.572 375.300 C 224.587 374.805,224.708 374.400,224.840 374.400 C 225.315 374.400,225.652 363.245,225.203 362.406 C 224.778 361.611,222.993 361.349,221.643 361.884 " stroke="none" fill="#e42424" fill-rule="evenodd"></path><path id="path4" d="" stroke="none" fill="#f46444" fill-rule="evenodd"></path></g></svg>